<?xml version="1.0" encoding="utf-8"?>
<!-- Generator: Adobe Illustrator 24.0.1, SVG Export Plug-In . SVG Version: 6.00 Build 0)  -->
<svg version="1.1" id="Layer_1" xmlns="http://www.w3.org/2000/svg" xmlns:xlink="http://www.w3.org/1999/xlink" x="0px" y="0px"
	 viewBox="0 0 5000 5000" style="enable-background:new 0 0 5000 5000;" xml:space="preserve">
<style type="text/css">
	.st0{fill:#EFECCA;}
</style>
<g>
	<g>
		<path class="st0" d="M1886.6,4454h-24.9c-323.31,0-617.1-83.22-873.22-247.35l107.7-168.04
			c223.45,143.2,481.01,215.8,765.52,215.8h24.9c366.77,0,708.8-129.08,963.08-363.47c253.13-233.31,392.53-547.44,392.53-884.52
			l-13.57-2204.38l199.59-1.23l13.57,2204.99c0,394.09-162.24,760.34-456.84,1031.89C2693.7,4306.15,2303.64,4454,1886.6,4454z
			 M2481.69,1305.46h135.62v75.28l13.43,1620.75c0,207.83-70.68,400.3-199.01,542.73c-137.07,152.12-332.27,235.89-549.65,235.89
			h-15.85c-199.63,0-362.88-54.36-513.75-171.08l122.12-157.86c117.21,90.67,234.33,129.36,391.63,129.36h15.85
			c75.91,0,146.66-12.83,210.72-37.85l11.81-1960.13L2481.69,1305.46z M2303.78,1614.16l-10.53,1785.27
			c89.03-104.63,160.93-245.04,160.93-397.17l-11.1-1477.55c-0.13-16.36-20.76-23.45-30.92-10.63L2303.78,1614.16z M2417.72,1251.59
			c0,0.1,0.01,0.2,0.01,0.3L2417.72,1251.59z"/>
	</g>
</g>
<g>
	<path class="st0" d="M3188.16,690.95h288.64c0,0,0-187.21-144.32-187.21S3188.16,690.95,3188.16,690.95z"/>
	<path class="st0" d="M2684.89,610.77c41.94-14.1,83.88-21.11,125.81-26.45c41.94-5.04,83.88-7.19,125.82-7.26
		c41.94-0.01,83.88,2.15,125.82,7.17c41.94,5.33,83.88,12.36,125.82,26.55c-41.94,14.18-83.88,21.22-125.82,26.55
		c-41.94,5.02-83.88,7.18-125.82,7.17c-41.94-0.07-83.88-2.22-125.82-7.26C2768.76,631.87,2726.82,624.86,2684.89,610.77z"/>
	<path class="st0" d="M3476.8,610.77c41.94-14.1,83.88-21.11,125.81-26.45c41.94-5.04,83.88-7.19,125.82-7.26
		c41.94-0.01,83.88,2.15,125.82,7.17c41.94,5.33,83.88,12.36,125.82,26.55c-41.94,14.18-83.88,21.22-125.82,26.55
		c-41.94,5.02-83.88,7.18-125.82,7.17c-41.94-0.07-83.88-2.22-125.82-7.26C3560.68,631.87,3518.74,624.86,3476.8,610.77z"/>
</g>
<g>
	<path class="st0" d="M2402.87,1219.68h281.01c0,0,0-182.26-140.5-182.26C2402.87,1037.42,2402.87,1219.68,2402.87,1219.68z"/>
	<path class="st0" d="M1912.91,1141.62c40.83-13.73,81.66-20.55,122.49-25.75c40.83-4.91,81.66-7,122.49-7.07
		c40.83-0.01,81.66,2.09,122.49,6.98c40.83,5.19,81.66,12.04,122.49,25.84c-40.83,13.81-81.66,20.65-122.49,25.84
		c-40.83,4.89-81.66,6.99-122.49,6.98c-40.83-0.07-81.66-2.16-122.49-7.07C1994.57,1162.17,1953.74,1155.34,1912.91,1141.62z"/>
	<path class="st0" d="M2683.87,1141.62c40.83-13.73,81.66-20.55,122.49-25.75c40.83-4.91,81.66-7,122.49-7.07
		c40.83-0.01,81.66,2.09,122.49,6.98c40.83,5.19,81.66,12.04,122.49,25.84c-40.83,13.81-81.66,20.65-122.49,25.84
		c-40.83,4.89-81.66,6.99-122.49,6.98c-40.83-0.07-81.66-2.16-122.49-7.07C2765.53,1162.17,2724.7,1155.34,2683.87,1141.62z"/>
</g>
</svg>
