<?xml version="1.0" encoding="utf-8"?>
<!-- Generator: Adobe Illustrator 24.0.1, SVG Export Plug-In . SVG Version: 6.00 Build 0)  -->
<svg version="1.1" id="Layer_1" xmlns="http://www.w3.org/2000/svg" xmlns:xlink="http://www.w3.org/1999/xlink" x="0px" y="0px"
	 viewBox="0 0 4732.46 1844.4" style="enable-background:new 0 0 4732.46 1844.4;" xml:space="preserve">
<style type="text/css">
	.st0{fill:#EFECCA;}
</style>
<g>
	<g>
		<path class="st0" d="M420.91,1839.23h-11.67c-151.52,0-289.21-39-409.24-115.92l50.47-78.75
			c104.72,67.11,225.43,101.14,358.77,101.14h11.67c171.89,0,332.18-60.5,451.35-170.34c118.63-109.34,183.96-256.56,183.96-414.53
			l-6.36-1033.09l93.54-0.58l6.36,1033.38c0,184.69-76.03,356.34-214.1,483.6C799.16,1769.94,616.35,1839.23,420.91,1839.23z
			 M699.8,363.65h63.56v35.28l6.3,759.58c0,97.4-33.12,187.6-93.27,254.35c-64.24,71.29-155.72,110.55-257.6,110.55h-7.43
			c-93.56,0-170.06-25.48-240.77-80.18l57.23-73.98c54.93,42.49,109.82,60.62,183.54,60.62h7.43c35.58,0,68.73-6.01,98.76-17.74
			l5.54-918.63L699.8,363.65z M616.42,508.32L611.49,1345c41.72-49.04,75.42-114.84,75.42-186.14l-5.2-692.46
			c-0.06-7.67-9.73-10.99-14.49-4.98L616.42,508.32z M669.82,338.4c0,0.05,0,0.09,0,0.14L669.82,338.4z"/>
	</g>
</g>
<g>
	<path class="st0" d="M3608.56,1844.4h-62.72V617.18c0-31.01,25.23-56.24,56.24-56.24h572.48c20.28,0,38.71,10.33,49.3,27.63
		c10.59,17.32,11.4,38.43,2.16,56.48l-0.02,0.05l-563.02,1098.83l1016.39-1.58l0.16,100.38L3608.56,1844.4z M3646.22,661.33v895.19
		l458.67-895.19H3646.22z M4136.65,599.36c-0.02,0.05-0.04,0.08-0.06,0.11L4136.65,599.36z M2364.34,1842.73h-245.22
		c-71.37,0-135.27-39.78-166.78-103.83l-48.35-98.33h-566.37l-58.39,117.56c-25.9,52.19-78.2,84.6-136.46,84.6H877.32
		c-20.23,0-38.63-10.28-49.24-27.51c-10.6-17.22-11.49-38.28-2.37-56.34l711.61-1407.27c14.99-29.65,44.94-48.13,78.16-48.23
		c0.08,0,0.17,0,0.26,0c33.12,0,63.06,18.28,78.18,47.77l312.77,609.8V327.42c0-24.48,15.5-46.37,38.57-54.51
		c23.08-8.19,48.89-0.8,64.24,18.25l691.23,858.93c8.77,10.91,20.17,12.53,26.18,12.53c6,0,17.39-1.63,26.17-12.55l637.62-790.42
		c47.39-58.75,117.87-92.46,193.37-92.46h990.53c20.31,0,38.76,10.36,49.33,27.69c10.58,17.35,11.35,38.48,2.06,56.55
		l-562.13,1096.25h515.58v100.38h-585.28c-20.3,0-38.74-10.34-49.32-27.66c-10.59-17.32-11.37-38.44-2.11-56.51l562.16-1096.31
		h-920.83c-45,0-86.99,20.08-115.24,55.11l-637.56,790.36c-25.5,31.71-63.54,49.96-104.33,49.96c-0.01,0-0.02,0-0.03,0
		c-40.78,0.02-78.82-18.22-104.39-49.98l-615.45-764.77v714.2c0,24-16.29,44.67-39.61,50.29c-23.32,5.62-47.23-5.36-58.16-26.73
		l-393.49-767.19L946.56,1742.35h196.21c19.88,0,37.71-11.06,46.55-28.85l70.13-141.21c9.84-19.8,29.67-32.09,51.77-32.09h619.27
		c22.16,0,42.02,12.35,51.83,32.22l60.08,122.18c14.49,29.46,43.88,47.76,76.7,47.76h203.41v-560.12
		c0-24.93,15.89-46.96,39.55-54.83c23.62-7.89,49.57,0.23,64.51,20.19l388.15,518.22c3.97,5.31,9.33,6.11,12.17,6.11
		c0.01,0,0.01,0,0.01,0c2.84-0.02,8.19-0.8,12.16-6.11l387.25-518.14c14.94-19.98,40.85-28.14,64.54-20.24
		c23.66,7.86,39.56,29.92,39.56,54.85v657.66h-100.38v-529.55l-310.55,415.52c-22.01,29.46-55.72,46.37-92.5,46.4
		c-0.02,0-0.05,0-0.07,0c-36.76,0-70.48-16.88-92.52-46.3l-311.47-415.88v472.41c0,6.94-1.25,13.69-3.72,20.18
		C2411.6,1826.35,2389.74,1842.73,2364.34,1842.73z M2098.6,1140.16l0.06,0.1C2098.64,1140.23,2098.62,1140.2,2098.6,1140.16z
		 M4636.71,305.56c-0.02,0.03-0.03,0.07-0.05,0.1L4636.71,305.56z M1800.17,1392.59h-348.91c-19.61,0-37.47-9.97-47.78-26.65
		c-10.31-16.67-11.23-37.1-2.46-54.64l173.17-346.62c10.26-20.57,30.91-33.35,53.92-33.35c0.03,0,0.07,0,0.11,0
		c23.05,0.05,43.71,12.91,53.93,33.56l0.02,0.05L1852,1309.22c8.9,18.04,7.88,39-2.74,56.09S1820.29,1392.59,1800.17,1392.59z
		 M1522.77,1292.21h208.9l-103.79-210.39L1522.77,1292.21z"/>
	<polygon class="st0" points="1951.38,865.24 1851,865.24 1851,457.59 2026.66,281.9 2097.65,352.88 1951.38,499.15 	"/>
</g>
<g>
	<path class="st0" d="M666.46,313.18H794.6c0,0,0-83.11-64.07-83.11S666.46,313.18,666.46,313.18z"/>
	<path class="st0" d="M443.03,277.59c18.62-6.26,37.24-9.37,55.85-11.74c18.62-2.24,37.24-3.19,55.86-3.22
		c18.62,0,37.24,0.95,55.86,3.18c18.62,2.37,37.24,5.49,55.86,11.78c-18.62,6.3-37.24,9.42-55.86,11.78
		c-18.62,2.23-37.24,3.19-55.86,3.18c-18.62-0.03-37.24-0.99-55.86-3.22C480.27,286.96,461.65,283.85,443.03,277.59z"/>
	<path class="st0" d="M794.6,277.59c18.62-6.26,37.24-9.37,55.85-11.74c18.62-2.24,37.24-3.19,55.86-3.22
		c18.62,0,37.24,0.95,55.86,3.18c18.62,2.37,37.24,5.49,55.86,11.78c-18.62,6.3-37.24,9.42-55.86,11.78
		c-18.62,2.23-37.24,3.19-55.86,3.18c-18.62-0.03-37.24-0.99-55.86-3.22C831.84,286.96,813.22,283.85,794.6,277.59z"/>
</g>
<g>
	<path class="st0" d="M1038.9,83.11h128.14c0,0,0-83.11-64.07-83.11S1038.9,83.11,1038.9,83.11z"/>
	<path class="st0" d="M815.47,47.52c18.62-6.26,37.24-9.37,55.85-11.74c18.62-2.24,37.24-3.19,55.86-3.22
		c18.62,0,37.24,0.95,55.86,3.18c18.62,2.37,37.24,5.49,55.86,11.78c-18.62,6.3-37.24,9.42-55.86,11.78
		c-18.62,2.23-37.24,3.19-55.86,3.18c-18.62-0.03-37.24-0.99-55.86-3.22C852.71,56.89,834.09,53.77,815.47,47.52z"/>
	<path class="st0" d="M1167.04,47.52c18.62-6.26,37.24-9.37,55.85-11.74c18.62-2.24,37.24-3.19,55.86-3.22
		c18.62,0,37.24,0.95,55.86,3.18c18.62,2.37,37.24,5.49,55.86,11.78c-18.62,6.3-37.24,9.42-55.86,11.78
		c-18.62,2.23-37.24,3.19-55.86,3.18c-18.62-0.03-37.24-0.99-55.86-3.22C1204.27,56.89,1185.65,53.77,1167.04,47.52z"/>
</g>
<g>
	<path class="st0" d="M1562.46,233.51h128.14c0,0,0-83.11-64.07-83.11C1562.46,150.4,1562.46,233.51,1562.46,233.51z"/>
	<path class="st0" d="M1339.03,197.91c18.62-6.26,37.24-9.37,55.85-11.74c18.62-2.24,37.24-3.19,55.86-3.22
		c18.62,0,37.24,0.95,55.86,3.18c18.62,2.37,37.24,5.49,55.86,11.78c-18.62,6.3-37.24,9.42-55.86,11.78
		c-18.62,2.23-37.24,3.19-55.86,3.18c-18.62-0.03-37.24-0.99-55.86-3.22C1376.27,207.28,1357.65,204.17,1339.03,197.91z"/>
	<path class="st0" d="M1690.6,197.91c18.62-6.26,37.24-9.37,55.85-11.74c18.62-2.24,37.24-3.19,55.86-3.22
		c18.62,0,37.24,0.95,55.86,3.18c18.62,2.37,37.24,5.49,55.86,11.78c-18.62,6.3-37.24,9.42-55.86,11.78
		c-18.62,2.23-37.24,3.19-55.86,3.18c-18.62-0.03-37.24-0.99-55.86-3.22C1727.84,207.28,1709.22,204.17,1690.6,197.91z"/>
</g>
<g>
	<path class="st0" d="M3603.32,224.5h128.14c0,0,0-83.11-64.07-83.11C3603.32,141.39,3603.32,224.5,3603.32,224.5z"/>
	<path class="st0" d="M3379.89,188.91c18.62-6.26,37.24-9.37,55.85-11.74c18.62-2.24,37.24-3.19,55.86-3.22
		c18.62,0,37.24,0.95,55.86,3.18c18.62,2.37,37.24,5.49,55.86,11.78c-18.62,6.3-37.24,9.42-55.86,11.78
		c-18.62,2.23-37.24,3.19-55.86,3.18c-18.62-0.03-37.24-0.99-55.86-3.22C3417.13,198.28,3398.51,195.17,3379.89,188.91z"/>
	<path class="st0" d="M3731.46,188.91c18.62-6.26,37.24-9.37,55.85-11.74c18.62-2.24,37.24-3.19,55.86-3.22
		c18.62,0,37.24,0.95,55.86,3.18c18.62,2.37,37.24,5.49,55.86,11.78c-18.62,6.3-37.24,9.42-55.86,11.78
		c-18.62,2.23-37.24,3.19-55.86,3.18c-18.62-0.03-37.24-0.99-55.86-3.22C3768.69,198.28,3750.07,195.17,3731.46,188.91z"/>
</g>
</svg>
